:SAMPLES-PER-SECOND 30
:FULLY-SPECIFIED
:DEGREES
311
root  -50.9693 39.6523 -2.89174 179.203 0.179352 173.947
RightUpLeg  -12.5341 26.7989 -19.4368
RightLeg  24.7369 7.59397 3.59547
RightFoot  -15.8897 0.137873 6.20878
RightToes  0.000482159 0.542163 -0.142577
Spine  13.0304 -1.66411 -5.1207
Spine1  3.11969 -3.52224 5.51498
HEad  3.47672 1.11962 -0.646666
LeftShoulder1  6.4935 -9.36411 -43.901
LeftArm  -15.8494 24.6516 -30.3499
LeftForeArm  46.8177 -43.271 -7.44009
LeftHand  -0.25398 0.0180481 5.50724
RightShoulder  3.97156 7.30321 30.7957
RightArm  -2.01123 -18.5048 35.6715
RightForeArm  -10.6395 27.0802 6.36271
RightHand  -2.70801 7.30699 -24.799
LeftUpLeg  -11.8804 2.24024 4.18153
LeftLeg  19.9395 -2.46174 -0.652266
LeftFoot  -6.72632 0.353852 -7.78508
LeftToes  1.06246e-005 4.65855e-005 -8.18503e-006
312
root  -52.3261 39.8287 -2.71747 -179.847 6.29675 172.61
RightUpLeg  -15.846 20.0911 -22.1567
RightLeg  24.6347 3.38776 1.47128
RightFoot  -12.3551 -0.0203855 6.19989
RightToes  0.000482159 0.542163 -0.142577
Spine  13.4814 -1.33412 -6.63236
Spine1  1.67718 -3.05462 4.66083
HEad  2.21728 -1.84935 0.58015
LeftShoulder1  6.70115 -9.80707 -43.8007
LeftArm  -14.9616 24.754 -29.4048
LeftForeArm  45.2958 -43.0426 -7.4596
LeftHand  -0.25398 0.0180481 5.50724
RightShoulder  3.91023 7.1759 30.6616
RightArm  -4.60619 -18.2796 37.3328
RightForeArm  -11.1248 23.3066 5.60155
RightHand  -2.77271 7.42538 -25.1401
LeftUpLeg  -12.0746 9.39395 1.04741
LeftLeg  19.1552 -2.69008 -1.1796
LeftFoot  -6.77605 0.285602 -6.15827
LeftToes  1.06246e-005 4.65855e-005 -8.18503e-006
313
root  -53.6454 40.0689 -2.60933 -179.499 13.2288 172.375
RightUpLeg  -18.6021 12.4819 -21.2912
RightLeg  25.6672 0.211523 -0.107092
RightFoot  -9.38268 -0.141153 4.36987
RightToes  0.000482159 0.542163 -0.142577
Spine  14.0368 -1.1111 -4.26179
Spine1  0.509222 -1.6362 0.151131
HEad  1.06085 -5.31912 1.72885
LeftShoulder1  6.7977 -10.3084 -42.7637
LeftArm  -14.0038 24.977 -28.3116
LeftForeArm  44.3317 -42.9447 -7.48681
LeftHand  -0.25398 0.0180481 5.50724
RightShoulder  3.88507 6.82556 31.6669
RightArm  -7.04704 -18.7891 38.7229
RightForeArm  -12.5721 20.6396 5.62485
RightHand  -2.83907 7.46144 -25.6522
LeftUpLeg  -11.3026 12.5001 -0.328798
LeftLeg  17.3798 1.94897 -1.19661
LeftFoot  -6.44502 0.24073 -4.72226
LeftToes  1.06246e-005 4.65855e-005 -8.18503e-006
314
root  -54.8738 40.3126 -2.55626 -179.706 19.98 172.752
RightUpLeg  -20.1854 6.61184 -18.4142
RightLeg  27.934 0.083094 -0.166482
RightFoot  -8.16853 -0.175496 4.26831
RightToes  0.000482159 0.542163 -0.142577
Spine  14.6804 -0.760378 -1.58642
Spine1  0.0965417 -0.310653 -3.39892
HEad  -0.306236 -8.53412 1.77373
LeftShoulder1  6.87876 -10.6512 -42.1912
LeftArm  -13.9895 24.9817 -27.5956
LeftForeArm  43.7669 -42.4222 -7.36024
LeftHand  -0.25398 0.0180481 5.50724
RightShoulder  3.83951 6.51756 32.3656
RightArm  -7.79369 -19.5079 39.7849
RightForeArm  -13.5249 19.058 5.96051
RightHand  -2.67757 6.93682 -25.2212
LeftUpLeg  -10.1365 11.5069 -0.560868
LeftLeg  15.8745 9.78039 -0.961753
LeftFoot  -6.14673 0.186093 -3.29072
LeftToes  1.06246e-005 4.65855e-005 -8.18503e-006
315
root  -55.9753 40.5542 -2.55726 179.89 25.9369 173.078
RightUpLeg  -20.5539 2.08388 -15.2324
RightLeg  31.174 0.015504 -0.238155
RightFoot  -7.54402 -0.252628 6.06677
RightToes  0.000482159 0.542163 -0.142577
Spine  14.885 -0.33834 -0.892464
Spine1  0.354401 0.261773 -3.67244
HEad  -1.60747 -10.6982 1.11418
LeftShoulder1  6.89001 -10.6585 -42.2436
LeftArm  -14.9273 25.1263 -27.555
LeftForeArm  42.4373 -41.3266 -7.10911
LeftHand  -0.25398 0.0180481 5.50724
RightShoulder  3.84999 6.5466 32.3617
RightArm  -7.04992 -20.2971 40.4758
RightForeArm  -10.4412 18.3047 6.02053
RightHand  -2.10654 5.2571 -22.9833
LeftUpLeg  -8.72975 9.64726 -0.699059
LeftLeg  13.8958 17.4127 -1.29238
LeftFoot  -5.63895 0.126711 -1.86947
LeftToes  1.06246e-005 4.65855e-005 -8.18503e-006
316
root  -56.949 40.7527 -2.62085 179.608 31.3501 173.227
RightUpLeg  -20.1698 -2.53538 -12.2908
RightLeg  34.7909 -2.45242 -2.10065
RightFoot  -7.12163 -0.29617 6.72639
RightToes  0.000482159 0.542163 -0.142577
Spine  14.5964 -0.136759 -1.08634
Spine1  0.464923 0.31188 -2.93464
HEad  -2.39143 -11.7563 0.770284
LeftShoulder1  6.7587 -10.4336 -42.0947
LeftArm  -15.6862 26.0379 -27.7968
LeftForeArm  39.8311 -40.1602 -6.92108
LeftHand  -0.25398 0.0180481 5.50724
RightShoulder  3.94673 6.77291 32.4591
RightArm  -5.43233 -21.2432 40.5707
RightForeArm  -3.44015 18.156 5.74729
RightHand  -1.43989 3.06779 -19.8899
LeftUpLeg  -7.24433 7.36203 -0.907685
LeftLeg  11.0037 25.2822 -2.43288
LeftFoot  -4.9151 0.0654351 -0.639104
LeftToes  1.06246e-005 4.65855e-005 -8.18503e-006
317
root  -57.8202 40.8776 -2.73513 179.532 36.572 173.347
RightUpLeg  -19.2273 -7.76802 -9.73415
RightLeg  38.1793 -6.05561 -5.3483
RightFoot  -7.22542 -0.243073 5.38173
RightToes  0.000482159 0.542163 -0.142577
Spine  14.0533 -0.212755 -0.866213
Spine1  0.178469 0.280463 -3.05613
HEad  -2.76246 -12.2451 0.989931
LeftShoulder1  6.58284 -10.1973 -41.6775
LeftArm  -15.5435 27.6402 -27.6658
LeftForeArm  37.2493 -39.3427 -6.84005
LeftHand  -0.25398 0.0180481 5.50724
RightShoulder  4.00362 6.7943 32.9337
RightArm  -3.17111 -22.1621 40.2495
RightForeArm  2.49204 18.3332 5.46999
RightHand  -1.14749 1.99473 -18.186
LeftUpLeg  -6.25994 5.94214 -1.37973
LeftLeg  8.27946 32.1494 -3.55002
LeftFoot  -4.34542 -0.000403367 0.445962
LeftToes  1.06246e-005 4.65855e-005 -8.18503e-006
